<mxfile host="65bd71144e" scale="2" border="20">
    <diagram name="ページ1" id="Va3KV1JrYKxkasvoEgSu">
        <mxGraphModel dx="1514" dy="1018" grid="1" gridSize="10" guides="1" tooltips="1" connect="1" arrows="1" fold="1" page="1" pageScale="1" pageWidth="1000" pageHeight="800" background="#ffffff" math="0" shadow="0">
            <root>
                <mxCell id="0"/>
                <mxCell id="1" parent="0"/>
                <mxCell id="GSw8G90wKxrbIq7TqveH-9" value="&lt;font style=&quot;font-size: 16px;&quot; color=&quot;#1a1a1a&quot;&gt;プロジェクト&lt;/font&gt;" style="rounded=0;whiteSpace=wrap;html=1;fillColor=#FFFFFF;strokeColor=#1A1A1A;" parent="1" vertex="1">
                    <mxGeometry x="170" y="70" width="160" height="40" as="geometry"/>
                </mxCell>
                <mxCell id="GSw8G90wKxrbIq7TqveH-10" value="&lt;font color=&quot;#1a1a1a&quot;&gt;&lt;span style=&quot;font-size: 16px;&quot;&gt;vite&lt;/span&gt;&lt;/font&gt;" style="rounded=0;whiteSpace=wrap;html=1;fillColor=#FFFFFF;strokeColor=#1A1A1A;" parent="1" vertex="1">
                    <mxGeometry x="190" y="150" width="140" height="40" as="geometry"/>
                </mxCell>
                <mxCell id="GSw8G90wKxrbIq7TqveH-11" value="&lt;font style=&quot;font-size: 16px;&quot; color=&quot;#1a1a1a&quot;&gt;bun&lt;/font&gt;" style="rounded=0;whiteSpace=wrap;html=1;fillColor=#FFFFFF;strokeColor=#1A1A1A;" parent="1" vertex="1">
                    <mxGeometry x="190" y="190" width="140" height="40" as="geometry"/>
                </mxCell>
                <mxCell id="GSw8G90wKxrbIq7TqveH-12" value="&lt;font style=&quot;font-size: 16px;&quot; color=&quot;#1a1a1a&quot;&gt;node v22.3.0&lt;/font&gt;" style="rounded=0;whiteSpace=wrap;html=1;fillColor=#FFFFFF;strokeColor=#1A1A1A;" parent="1" vertex="1">
                    <mxGeometry x="190" y="230" width="140" height="40" as="geometry"/>
                </mxCell>
                <mxCell id="GSw8G90wKxrbIq7TqveH-13" value="&lt;font style=&quot;font-size: 16px;&quot; color=&quot;#1a1a1a&quot;&gt;静的ファイル(html, js, css)&lt;/font&gt;" style="rounded=0;whiteSpace=wrap;html=1;fillColor=#FFFFFF;gradientColor=none;strokeColor=#1A1A1A;" parent="1" vertex="1">
                    <mxGeometry x="490" y="110" width="260" height="40" as="geometry"/>
                </mxCell>
                <mxCell id="8" value="&lt;font color=&quot;#1a1a1a&quot;&gt;&lt;span style=&quot;font-size: 16px;&quot;&gt;react(typescript)&lt;/span&gt;&lt;/font&gt;" style="rounded=0;whiteSpace=wrap;html=1;fillColor=#FFFFFF;strokeColor=#1A1A1A;" parent="1" vertex="1">
                    <mxGeometry x="190" y="110" width="140" height="40" as="geometry"/>
                </mxCell>
                <mxCell id="9" value="" style="sketch=0;points=[[0,0,0],[0.25,0,0],[0.5,0,0],[0.75,0,0],[1,0,0],[0,1,0],[0.25,1,0],[0.5,1,0],[0.75,1,0],[1,1,0],[0,0.25,0],[0,0.5,0],[0,0.75,0],[1,0.25,0],[1,0.5,0],[1,0.75,0]];outlineConnect=0;fontColor=#232F3E;gradientColor=#60A337;gradientDirection=north;fillColor=#277116;strokeColor=#ffffff;dashed=0;verticalLabelPosition=bottom;verticalAlign=top;align=center;html=1;fontSize=12;fontStyle=0;aspect=fixed;shape=mxgraph.aws4.resourceIcon;resIcon=mxgraph.aws4.s3;" parent="1" vertex="1">
                    <mxGeometry x="590" y="290" width="60" height="60" as="geometry"/>
                </mxCell>
                <mxCell id="10" value="" style="edgeStyle=orthogonalEdgeStyle;html=1;endArrow=block;elbow=vertical;startArrow=none;endFill=1;strokeColor=#545B64;rounded=0;fontSize=16;entryX=0;entryY=0.5;entryDx=0;entryDy=0;entryPerimeter=0;exitX=1;exitY=0.5;exitDx=0;exitDy=0;" parent="1" source="11" target="9" edge="1">
                    <mxGeometry width="100" relative="1" as="geometry">
                        <mxPoint x="500" y="220" as="sourcePoint"/>
                        <mxPoint x="550" y="240" as="targetPoint"/>
                        <Array as="points">
                            <mxPoint x="500" y="320"/>
                            <mxPoint x="500" y="320"/>
                        </Array>
                    </mxGeometry>
                </mxCell>
                <mxCell id="14" value="" style="edgeStyle=orthogonalEdgeStyle;html=1;endArrow=none;elbow=vertical;startArrow=none;endFill=1;strokeColor=#545B64;rounded=0;fontSize=16;exitX=1;exitY=0.5;exitDx=0;exitDy=0;entryX=0;entryY=0.5;entryDx=0;entryDy=0;entryPerimeter=0;" parent="1" source="GSw8G90wKxrbIq7TqveH-10" target="11" edge="1">
                    <mxGeometry width="100" relative="1" as="geometry">
                        <mxPoint x="330" y="170" as="sourcePoint"/>
                        <mxPoint x="580" y="220" as="targetPoint"/>
                        <Array as="points"/>
                    </mxGeometry>
                </mxCell>
                <mxCell id="11" value="&lt;font color=&quot;#1a1a1a&quot;&gt;Build&lt;/font&gt;" style="text;html=1;strokeColor=none;fillColor=none;align=center;verticalAlign=middle;whiteSpace=wrap;rounded=0;fontSize=16;" parent="1" vertex="1">
                    <mxGeometry x="430" y="305" width="60" height="30" as="geometry"/>
                </mxCell>
                <mxCell id="15" value="" style="edgeStyle=orthogonalEdgeStyle;html=1;endArrow=block;elbow=vertical;startArrow=none;endFill=1;strokeColor=#545B64;rounded=0;fontSize=16;fontColor=#1A1A1A;entryX=0.5;entryY=1;entryDx=0;entryDy=0;exitX=0.5;exitY=0;exitDx=0;exitDy=0;exitPerimeter=0;" parent="1" source="9" target="GSw8G90wKxrbIq7TqveH-13" edge="1">
                    <mxGeometry width="100" relative="1" as="geometry">
                        <mxPoint x="450" y="240" as="sourcePoint"/>
                        <mxPoint x="550" y="240" as="targetPoint"/>
                    </mxGeometry>
                </mxCell>
                <mxCell id="16" value="fetchライブラリ&lt;br&gt;axios&lt;br&gt;&lt;br&gt;UIライブラリ&lt;br&gt;shadcn/ui, tailwind&lt;br&gt;&lt;br&gt;状態管理&lt;br&gt;zustand&lt;br&gt;&lt;br&gt;フォームライブラリ&lt;br&gt;react-hook-form, zod(バリデーション)&lt;br&gt;&lt;br&gt;テスティングライブラリ&lt;br&gt;Vitest, Playwright, reg-suit, Storybook" style="text;html=1;align=left;verticalAlign=middle;whiteSpace=wrap;rounded=0;fillColor=#f5f5f5;fontColor=#333333;strokeColor=#666666;" parent="1" vertex="1">
                    <mxGeometry x="120" y="300" width="230" height="230" as="geometry"/>
                </mxCell>
            </root>
        </mxGraphModel>
    </diagram>
</mxfile>